<svg xmlns="http://www.w3.org/2000/svg" width="100" height="100" viewBox="0 0 100 100"><defs><style>.cls-1,.cls-2{fill:#fff;}.cls-2,.cls-3,.cls-4,.cls-5,.cls-6{stroke:#1d1d1b;stroke-miterlimit:10;}.cls-2,.cls-3{stroke-width:3px;}.cls-3,.cls-4,.cls-5,.cls-6{fill:none;}.cls-4{stroke-width:2px;}.cls-5{stroke-width:0.75px;}.cls-6{stroke-width:0.5px;}</style></defs><g id="Layer_2" data-name="Layer 2"><g id="Layer_1-2" data-name="Layer 1"><rect class="cls-1" width="100" height="100"/><rect class="cls-2" x="46.47" y="39.38" width="25.26" height="16.47" transform="translate(21.15 -18.11) rotate(21.14)"/><rect class="cls-3" x="21.61" y="61.7" width="55.35" height="24.72"/><rect class="cls-2" x="18.18" y="54.03" width="62.93" height="7.66"/><rect class="cls-4" x="21.04" y="9.29" width="9.45" height="9.45"/><rect class="cls-4" x="31.27" y="31.27" width="5.76" height="5.76"/><rect class="cls-4" x="37.72" y="15.36" width="8.75" height="8.75"/><line class="cls-4" x1="23.12" y1="54.03" x2="23.12" y2="43.7"/><line class="cls-4" x1="28.12" y1="41.2" x2="22.62" y2="44.3"/><line class="cls-4" x1="31.4" y1="42.75" x2="27.38" y2="41.2"/><line class="cls-4" x1="26.59" y1="53.01" x2="27.14" y2="44.87"/><line class="cls-4" x1="31.67" y1="41.95" x2="30.02" y2="45.39"/><line class="cls-4" x1="26.19" y1="45.26" x2="30.87" y2="45.64"/><rect class="cls-4" x="18.18" y="87.15" width="8.25" height="3.99"/><rect class="cls-4" x="71.37" y="87.15" width="8.25" height="3.99"/><rect class="cls-4" x="55.99" y="33.54" width="14.17" height="6.55" transform="translate(17.52 -20.27) rotate(21.14)"/><rect class="cls-4" x="53.69" y="30.78" width="20.06" height="9.43" transform="translate(17.08 -20.59) rotate(21.14)"/><rect class="cls-5" x="42.22" y="19.76" width="1.67" height="1.67"/><rect class="cls-5" x="26.32" y="12.22" width="1.52" height="1.52"/><rect class="cls-6" x="32.84" y="33.94" width="1.56" height="1.56"/></g></g></svg>