<svg xmlns="http://www.w3.org/2000/svg" width="155.27" height="161.13" viewBox="0 0 155.27 161.13"><defs><style>.cls-1,.cls-2{fill:#fff;}.cls-1,.cls-2,.cls-3,.cls-4,.cls-5,.cls-6{stroke:#1d1d1b;stroke-miterlimit:10;}.cls-2,.cls-3{stroke-width:4px;}.cls-3,.cls-4,.cls-5,.cls-6{fill:none;}.cls-4{stroke-width:3px;}.cls-5{stroke-width:2px;}</style></defs><g id="Layer_2" data-name="Layer 2"><g id="Layer_1-2" data-name="Layer 1"><rect class="cls-1" x="0.5" y="0.5" width="154.27" height="160.13"/><rect class="cls-2" x="79.26" y="53.75" width="41.04" height="26.76" transform="translate(30.92 -31.46) rotate(21.14)"/><rect class="cls-3" x="38.88" y="89.99" width="89.91" height="40.15"/><rect class="cls-2" x="33.31" y="77.54" width="102.21" height="12.45"/><rect class="cls-4" x="35.07" y="12.14" width="15.35" height="15.35"/><rect class="cls-5" x="42.75" y="39.3" width="9.35" height="9.35"/><rect class="cls-4" x="60.99" y="21.5" width="14.21" height="14.21"/><line class="cls-4" x1="41.33" y1="77.54" x2="41.37" y2="60.32"/><line class="cls-4" x1="49.63" y1="56.6" x2="40.54" y2="61.73"/><line class="cls-4" x1="54.78" y1="59.22" x2="48.25" y2="56.7"/><line class="cls-4" x1="46.98" y1="75.89" x2="47.86" y2="62.99"/><line class="cls-4" x1="55.73" y1="57.84" x2="52.94" y2="65.04"/><line class="cls-4" x1="46.2" y1="63.52" x2="54.55" y2="64"/><rect class="cls-4" x="33.31" y="131.34" width="13.41" height="6.48"/><rect class="cls-4" x="120.78" y="131.34" width="13.41" height="6.48"/><rect class="cls-4" x="94.72" y="44.26" width="23.01" height="10.63" transform="translate(25.02 -34.97) rotate(21.14)"/><rect class="cls-4" x="90.98" y="39.77" width="32.58" height="15.32" transform="translate(24.32 -35.49) rotate(21.14)"/><rect class="cls-6" x="69.75" y="30.09" width="2.72" height="2.72"/><rect class="cls-6" x="45.1" y="15.44" width="2.46" height="2.46"/><rect class="cls-6" x="45.29" y="43.65" width="2.53" height="2.53"/></g></g></svg>