<?xml version="1.0" encoding="UTF-8"?><svg xmlns="http://www.w3.org/2000/svg" width="107.01" height="127.05" viewBox="0 0 107.01 127.05"><defs><style>.d{stroke-width:3px;}.d,.e,.f,.g,.h{stroke:#1d1d1b;stroke-miterlimit:10;}.d,.f,.g,.h{fill:none;}.e{fill:#fff;}.e,.g{stroke-width:4px;}.f{stroke-width:2px;}</style></defs><g id="a"/><g id="b"><g id="c"><g><rect class="e" x="53.12" y="48.02" width="37.84" height="24.68" transform="translate(26.61 -21.92) rotate(21.14)"/><rect class="g" x="15.89" y="81.45" width="82.91" height="37.02"/><rect class="e" x="10.75" y="69.97" width="94.26" height="11.48"/><rect class="d" x="1.5" y="1.5" width="14.16" height="14.16"/><rect class="f" x="19.6" y="30.7" width="8.62" height="8.62"/><rect class="d" x="29.72" y="9.11" width="13.1" height="13.1"/><line class="d" x1="18.14" y1="69.97" x2="18.18" y2="54.08"/><line class="d" x1="25.8" y1="50.65" x2="17.42" y2="55.39"/><line class="d" x1="30.54" y1="53.07" x2="24.53" y2="50.74"/><line class="d" x1="23.35" y1="68.44" x2="24.17" y2="56.54"/><line class="d" x1="31.42" y1="51.8" x2="28.85" y2="58.44"/><line class="d" x1="22.64" y1="57.04" x2="30.34" y2="57.48"/><rect class="d" x="10.75" y="119.58" width="12.36" height="5.98"/><rect class="d" x="91.42" y="119.58" width="12.36" height="5.98"/><rect class="d" x="67.38" y="39.27" width="21.22" height="9.81" transform="translate(21.18 -25.15) rotate(21.14)"/><rect class="d" x="63.93" y="35.13" width="30.05" height="14.13" transform="translate(20.53 -25.63) rotate(21.14)"/><rect class="h" x="37.8" y="17.03" width="2.51" height="2.51"/><rect class="h" x="10.75" y="4.54" width="2.27" height="2.27"/><rect class="h" x="21.94" y="34.7" width="2.33" height="2.33"/></g></g></g></svg>