<?xml version="1.0" encoding="UTF-8"?><svg xmlns="http://www.w3.org/2000/svg" width="140.75" height="126.36" xmlns:xlink="http://www.w3.org/1999/xlink" viewBox="0 0 140.75 126.36"><defs><style>.f,.g,.h,.i,.j{stroke:#0338e1;stroke-miterlimit:10;}.f,.g,.h,.j{fill:none;}.f,.i{stroke-width:3px;}.g{stroke-width:4px;}.i{fill:#fff;}.j{stroke-width:2.8px;}</style></defs><g id="a"/><g id="b"><g id="c"><g><line class="f" x1="24.18" y1="27.05" x2="57.12" y2="47.02"/><line class="f" x1="88.54" y1="27.05" x2="55.56" y2="47.02"/><rect class="g" x="12.15" y="13.1" width="115.52" height="76.78"/><rect class="f" x="24.18" y="27.05" width="64.36" height="38.29"/><rect class="g" x="2" y="2" width="136.75" height="99.96"/><rect class="h" x="107.09" y="93.8" width="4.18" height="4.18"/><rect class="h" x="114.96" y="93.8" width="4.18" height="4.18"/><rect class="h" x="123.5" y="93.8" width="4.18" height="4.18"/><rect class="g" x="63.27" y="101.96" width="14.2" height="14.2"/><rect class="g" x="39.55" y="116.16" width="61.64" height="8.2"/><rect class="i" x="74.42" y="46.2" width="53.25" height="43.68"/><line class="j" x1="83.97" y1="57.29" x2="127.68" y2="57.29"/><line class="j" x1="83.97" y1="65.35" x2="127.68" y2="65.35"/><line class="j" x1="83.97" y1="74.21" x2="127.68" y2="74.21"/><line class="j" x1="83.97" y1="83.07" x2="127.68" y2="83.07"/><g id="d"><image id="e" transform="translate(29.53 48.94) scale(.02)" xlink:href="computer_retur_ikon1.png"/></g></g></g></g></svg>