<svg width="40" height="40" viewBox="0 0 40 40" fill="none" xmlns="http://www.w3.org/2000/svg">
<g filter="url(#filter0_d_486_3779)">
<path d="M20.0052 0C13.3254 0 11.3718 0.00689101 10.992 0.0383928C9.62121 0.152341 8.7682 0.368177 7.8389 0.830859C7.12272 1.18648 6.55791 1.59871 6.00047 2.17658C4.98528 3.23041 4.37001 4.5269 4.14728 6.06803C4.03899 6.8162 4.00749 6.96878 4.00109 10.7903C3.99863 12.0642 4.00109 13.7407 4.00109 15.9894C4.00109 22.6638 4.00848 24.6154 4.04047 24.9944C4.15122 26.3283 4.36041 27.1676 4.8034 28.0856C5.65001 29.8428 7.26694 31.1619 9.17181 31.6541C9.83138 31.8239 10.5599 31.9174 11.4951 31.9617C11.8913 31.979 15.9299 31.9913 19.971 31.9913C24.0121 31.9913 28.0532 31.9864 28.4396 31.9667C29.5225 31.9157 30.1513 31.8313 30.8465 31.6516C31.791 31.4094 32.6713 30.964 33.4258 30.3463C34.1803 29.7287 34.7909 28.9538 35.2149 28.0757C35.6493 27.1799 35.8696 26.3087 35.9692 25.0444C35.9909 24.7688 36 20.374 36 15.9852C36 11.5956 35.9902 7.20898 35.9685 6.93334C35.8676 5.64866 35.6473 4.78482 35.1989 3.87176C34.831 3.12434 34.4225 2.56616 33.8293 1.99544C32.7711 0.98443 31.4765 0.369161 29.9337 0.14668C29.1863 0.0386389 29.0374 0.00664491 25.2129 0H20.0052Z" fill="url(#paint0_radial_486_3779)"/>
<path d="M20.0052 0C13.3254 0 11.3718 0.00689101 10.992 0.0383928C9.62121 0.152341 8.7682 0.368177 7.8389 0.830859C7.12272 1.18648 6.55791 1.59871 6.00047 2.17658C4.98528 3.23041 4.37001 4.5269 4.14728 6.06803C4.03899 6.8162 4.00749 6.96878 4.00109 10.7903C3.99863 12.0642 4.00109 13.7407 4.00109 15.9894C4.00109 22.6638 4.00848 24.6154 4.04047 24.9944C4.15122 26.3283 4.36041 27.1676 4.8034 28.0856C5.65001 29.8428 7.26694 31.1619 9.17181 31.6541C9.83138 31.8239 10.5599 31.9174 11.4951 31.9617C11.8913 31.979 15.9299 31.9913 19.971 31.9913C24.0121 31.9913 28.0532 31.9864 28.4396 31.9667C29.5225 31.9157 30.1513 31.8313 30.8465 31.6516C31.791 31.4094 32.6713 30.964 33.4258 30.3463C34.1803 29.7287 34.7909 28.9538 35.2149 28.0757C35.6493 27.1799 35.8696 26.3087 35.9692 25.0444C35.9909 24.7688 36 20.374 36 15.9852C36 11.5956 35.9902 7.20898 35.9685 6.93334C35.8676 5.64866 35.6473 4.78482 35.1989 3.87176C34.831 3.12434 34.4225 2.56616 33.8293 1.99544C32.7711 0.98443 31.4765 0.369161 29.9337 0.14668C29.1863 0.0386389 29.0374 0.00664491 25.2129 0H20.0052Z" fill="url(#paint1_radial_486_3779)"/>
<path d="M19.9975 4.18457C16.7892 4.18457 16.3866 4.1986 15.1265 4.25594C13.8689 4.31353 13.0105 4.51263 12.2594 4.80476C11.4824 5.10649 10.8233 5.51011 10.1667 6.16697C9.50962 6.82358 9.106 7.48266 8.80329 8.25937C8.51042 9.01074 8.31108 9.86941 8.25447 11.1265C8.19836 12.3866 8.18359 12.7895 8.18359 15.9977C8.18359 19.206 8.19787 19.6074 8.25497 20.8675C8.3128 22.1251 8.5119 22.9835 8.80379 23.7346C9.10576 24.5116 9.50938 25.1707 10.1662 25.8273C10.8226 26.4844 11.4817 26.889 12.2582 27.1907C13.0098 27.4828 13.8684 27.6819 15.1258 27.7395C16.3859 27.7969 16.7883 27.8109 19.9963 27.8109C23.2048 27.8109 23.6062 27.7969 24.8662 27.7395C26.1239 27.6819 26.9833 27.4828 27.7349 27.1907C28.5116 26.889 29.1697 26.4844 29.826 25.8273C30.4832 25.1707 30.8868 24.5116 31.1895 23.7349C31.4799 22.9835 31.6792 22.1248 31.7383 20.8677C31.7949 19.6076 31.8097 19.206 31.8097 15.9977C31.8097 12.7895 31.7949 12.3868 31.7383 11.1268C31.6792 9.86916 31.4799 9.01074 31.1895 8.25962C30.8868 7.48266 30.4832 6.82358 29.826 6.16697C29.1689 5.50986 28.5118 5.10624 27.7341 4.80476C26.981 4.51263 26.1221 4.31353 24.8645 4.25594C23.6044 4.1986 23.2033 4.18457 19.994 4.18457H19.9975ZM18.9378 6.3134C19.2523 6.31291 19.6032 6.3134 19.9975 6.3134C23.1516 6.3134 23.5254 6.32472 24.771 6.38133C25.9228 6.43399 26.5479 6.62645 26.9643 6.78814C27.5156 7.00226 27.9086 7.25821 28.3218 7.67167C28.7353 8.08513 28.9913 8.4789 29.2059 9.03018C29.3675 9.4461 29.5603 10.0712 29.6127 11.223C29.6693 12.4683 29.6816 12.8424 29.6816 15.995C29.6816 19.1477 29.6693 19.5217 29.6127 20.7671C29.56 21.9188 29.3675 22.5439 29.2059 22.9599C28.9917 23.5112 28.7353 23.9037 28.3218 24.3169C27.9084 24.7304 27.5158 24.9863 26.9643 25.2004C26.5484 25.3629 25.9228 25.5548 24.771 25.6075C23.5257 25.6641 23.1516 25.6764 19.9975 25.6764C16.8431 25.6764 16.4693 25.6641 15.224 25.6075C14.0722 25.5543 13.4471 25.3619 13.0304 25.2002C12.4792 24.9861 12.0854 24.7301 11.6719 24.3167C11.2585 23.9032 11.0025 23.5104 10.7879 22.9589C10.6262 22.543 10.4335 21.9179 10.3811 20.7661C10.3245 19.5208 10.3132 19.1467 10.3132 15.9921C10.3132 12.8375 10.3245 12.4654 10.3811 11.22C10.4338 10.0683 10.6262 9.44315 10.7879 9.02674C11.002 8.47546 11.2585 8.08168 11.6719 7.66822C12.0854 7.25476 12.4792 6.99881 13.0304 6.7842C13.4469 6.62177 14.0722 6.42981 15.224 6.3769C16.3138 6.32768 16.7361 6.31291 18.9378 6.31045V6.3134ZM26.3033 8.27488C26.0229 8.27488 25.7488 8.35803 25.5156 8.51382C25.2825 8.6696 25.1008 8.89103 24.9935 9.15009C24.8863 9.40914 24.8582 9.6942 24.913 9.96919C24.9677 10.2442 25.1028 10.4968 25.3011 10.695C25.4994 10.8932 25.752 11.0282 26.027 11.0829C26.302 11.1375 26.5871 11.1094 26.8461 11.002C27.1051 10.8946 27.3265 10.7128 27.4822 10.4797C27.6379 10.2465 27.7209 9.97236 27.7208 9.69197C27.7208 8.90934 27.0859 8.27439 26.3033 8.27439V8.27488ZM19.9975 9.93118C16.6472 9.93118 13.9309 12.6475 13.9309 15.9977C13.9309 19.348 16.6472 22.0631 19.9975 22.0631C23.3478 22.0631 26.0633 19.348 26.0633 15.9977C26.0633 12.6475 23.3475 9.93118 19.9972 9.93118H19.9975ZM19.9975 12.06C22.1721 12.06 23.9352 13.8229 23.9352 15.9977C23.9352 18.1723 22.1721 19.9355 19.9975 19.9355C17.8226 19.9355 16.0598 18.1723 16.0598 15.9977C16.0598 13.8229 17.8226 12.06 19.9975 12.06V12.06Z" fill="white"/>
</g>
<defs>
<filter id="filter0_d_486_3779" x="0" y="0" width="40" height="39.9912" filterUnits="userSpaceOnUse" color-interpolation-filters="sRGB">
<feFlood flood-opacity="0" result="BackgroundImageFix"/>
<feColorMatrix in="SourceAlpha" type="matrix" values="0 0 0 0 0 0 0 0 0 0 0 0 0 0 0 0 0 0 127 0" result="hardAlpha"/>
<feOffset dy="4"/>
<feGaussianBlur stdDeviation="2"/>
<feComposite in2="hardAlpha" operator="out"/>
<feColorMatrix type="matrix" values="0 0 0 0 0 0 0 0 0 0 0 0 0 0 0 0 0 0 0.25 0"/>
<feBlend mode="normal" in2="BackgroundImageFix" result="effect1_dropShadow_486_3779"/>
<feBlend mode="normal" in="SourceGraphic" in2="effect1_dropShadow_486_3779" result="shape"/>
</filter>
<radialGradient id="paint0_radial_486_3779" cx="0" cy="0" r="1" gradientUnits="userSpaceOnUse" gradientTransform="translate(12.5 34.4553) rotate(-90) scale(31.7057 29.4969)">
<stop stop-color="#FFDD55"/>
<stop offset="0.1" stop-color="#FFDD55"/>
<stop offset="0.5" stop-color="#FF543E"/>
<stop offset="1" stop-color="#C837AB"/>
</radialGradient>
<radialGradient id="paint1_radial_486_3779" cx="0" cy="0" r="1" gradientUnits="userSpaceOnUse" gradientTransform="translate(-1.36017 2.3046) rotate(78.6776) scale(14.1727 58.4353)">
<stop stop-color="#3771C8"/>
<stop offset="0.128" stop-color="#3771C8"/>
<stop offset="1" stop-color="#6600FF" stop-opacity="0"/>
</radialGradient>
</defs>
</svg>
