<?xml version="1.0" encoding="UTF-8"?><svg xmlns="http://www.w3.org/2000/svg" width="183.64" height="152.62" xmlns:xlink="http://www.w3.org/1999/xlink" viewBox="0 0 183.64 152.62"><defs><style>.f{fill:#fff;}.f,.g{stroke-width:4px;}.f,.g,.h{stroke:#0338e1;stroke-miterlimit:10;}.g,.h{fill:none;}.h{stroke-width:2.8px;}</style></defs><g id="a"/><g id="b"><g id="c"><g><rect class="g" x="35.51" y="93.85" width="115.42" height="56.77"/><line class="g" x1="34.83" y1="93.47" x2="53.54" y2="59.77"/><line class="g" x1="150.93" y1="93.85" x2="131.03" y2="59.39"/><line class="g" x1="53.54" y1="59.77" x2="133.18" y2="59.84"/><line class="g" x1="150.93" y1="93.85" x2="181.93" y2="43.25"/><line class="g" x1="131.03" y1="59.39" x2="153.56" y2="25.79"/><line class="g" x1="182.29" y1="45.51" x2="151.84" y2="27.01"/><line class="g" x1="35.51" y1="93.85" x2="2.77" y2="44.31"/><line class="g" x1="54.88" y1="53.96" x2="32.12" y2="22.37"/><line class="g" x1="34.71" y1="22.48" x2="1.13" y2="45.44"/><rect class="f" x="41.23" y="29.21" width="73.92" height="47.41"/><rect class="g" x="56.9" y="10.37" width="41.45" height="18.84"/><rect class="g" x="48.65" y="2" width="58.69" height="27.14"/><rect class="g" x="104.71" y="102.99" width="35.71" height="38.48"/><line class="h" x1="110.89" y1="111.9" x2="135.03" y2="111.9"/><line class="h" x1="110.89" y1="118.54" x2="135.03" y2="118.54"/><line class="h" x1="110.89" y1="125.18" x2="135.03" y2="125.18"/><line class="h" x1="110.49" y1="132.3" x2="134.64" y2="132.3"/><g id="d"><image id="e" transform="translate(68.79 55.68) scale(.02)" xlink:href="kassetaske_retur_ikon1.png"/></g></g></g></g></svg>