<?xml version="1.0" encoding="UTF-8"?><svg xmlns="http://www.w3.org/2000/svg" width="55.18" height="51.57" viewBox="0 0 55.18 51.57"><defs><style>.d{fill:#0338e1;}</style></defs><g id="a"/><g id="b"><g id="c"><g><rect class="d" x="4.61" y="21.14" width="4" height="29.95" transform="translate(-8.86 2.82) rotate(-14.55)"/><rect class="d" x="7.65" y="47.57" width="40.03" height="4"/><path class="d" d="M55.18,24.52H0V13.97H55.18v10.55ZM4,20.52H51.18v-2.55H4v2.55Z"/><rect class="d" x="33.67" y="34.12" width="29.95" height="4" transform="translate(1.47 74.14) rotate(-75.45)"/><rect class="d" x="6.61" y="32.34" width="42.04" height="4"/><rect class="d" x="13.39" y="23.43" width="4" height="25.89" transform="translate(-7.78 4.39) rotate(-13)"/><rect class="d" x="25.53" y="23.14" width="4" height="25.65"/><rect class="d" x="25.68" y="33.59" width="27.45" height="4" transform="translate(-6.53 62.22) rotate(-72.19)"/><rect class="d" x="4.92" y="6.06" width="15.81" height="4" transform="translate(.45 16.79) rotate(-67.35)"/><rect class="d" x="39.84" y=".16" width="4" height="15.81" transform="translate(.12 16.74) rotate(-22.65)"/></g></g></g></svg>