<?xml version="1.0" encoding="UTF-8"?><svg xmlns="http://www.w3.org/2000/svg" width="158.14" height="121.19" xmlns:xlink="http://www.w3.org/1999/xlink" viewBox="0 0 158.14 121.19"><defs><style>.f{fill:#0338e1;}.g{fill:#fff;stroke-width:4px;}.g,.h,.i{stroke:#0338e1;stroke-miterlimit:10;}.h{stroke-width:2px;}.h,.i{fill:none;}</style></defs><g id="a"/><g id="b"><g id="c"><g><rect class="g" x="20.27" y="53.18" width="117.59" height="66.01"/><rect class="g" x="10.79" y="41.83" width="136.44" height="11.35"/><rect class="g" x="79.07" y="2" width="56.39" height="39.83"/><rect class="h" x="108.58" y="17.6" width="17.96" height="17.96"/><line class="i" x1="111.72" y1="21.91" x2="123.02" y2="21.91"/><line class="i" x1="111.72" y1="25.04" x2="123.02" y2="25.04"/><line class="i" x1="111.72" y1="28.16" x2="123.02" y2="28.16"/><line class="i" x1="111.72" y1="31.21" x2="123.02" y2="31.21"/><rect class="g" x="4.21" y="69.89" width="149.72" height="38.09" transform="translate(-11.83 12.13) rotate(-8.16)"/><g/><g><path class="f" d="M20.63,89.32l5.53-.79c1.46-.21,2.68,0,3.66,.65,.98,.64,1.57,1.65,1.77,3.02,.2,1.41-.07,2.57-.83,3.46-.76,.9-1.87,1.45-3.34,1.66l-2.35,.34,.54,3.75-3.17,.46-1.8-12.54Zm5.9,5.4c.63-.09,1.11-.29,1.44-.61,.33-.32,.45-.8,.35-1.44s-.34-1.06-.73-1.25c-.39-.19-.91-.24-1.56-.14l-1.85,.27,.49,3.45,1.85-.27Z"/><path class="f" d="M36.44,99.28c-1.1-.4-2.02-1.06-2.75-1.96-.73-.9-1.19-1.99-1.38-3.27-.18-1.28-.05-2.46,.4-3.54,.45-1.08,1.15-1.97,2.09-2.66,.94-.7,2.05-1.14,3.32-1.32,1.26-.18,2.44-.07,3.54,.33s2.02,1.06,2.75,1.97,1.18,2,1.37,3.28c.18,1.28,.05,2.46-.39,3.53-.44,1.07-1.14,1.96-2.08,2.65s-2.04,1.13-3.3,1.31c-1.27,.18-2.45,.07-3.55-.33Zm4.81-3.33c.49-.36,.84-.83,1.08-1.42,.23-.58,.3-1.23,.2-1.95s-.35-1.32-.73-1.81c-.38-.49-.86-.84-1.42-1.06s-1.18-.28-1.82-.19c-.66,.09-1.23,.33-1.71,.69-.48,.37-.84,.84-1.07,1.42-.23,.58-.29,1.22-.19,1.94,.1,.72,.35,1.32,.73,1.82,.38,.49,.86,.85,1.43,1.06,.57,.21,1.18,.27,1.83,.18,.63-.09,1.19-.32,1.68-.68Z"/><path class="f" d="M49.04,98.09c-.8-.04-1.47-.15-2.01-.34l-.41-2.85c.69,.24,1.4,.4,2.13,.46s1.4,.06,2.04-.04c.59-.08,1.02-.24,1.29-.46,.27-.22,.39-.5,.34-.84-.04-.25-.15-.46-.34-.62-.19-.16-.45-.3-.78-.41-.33-.11-.85-.26-1.55-.44-1.23-.32-2.15-.75-2.76-1.27-.61-.52-.98-1.22-1.11-2.09-.1-.72,0-1.39,.33-2.01,.32-.62,.82-1.14,1.49-1.55,.67-.41,1.48-.69,2.41-.82,.76-.11,1.46-.15,2.07-.11,.61,.03,1.22,.14,1.8,.33l.4,2.78c-1.13-.4-2.23-.52-3.29-.37-.57,.08-1.02,.24-1.33,.48s-.45,.52-.4,.87c.05,.35,.26,.6,.64,.77s1.06,.37,2.05,.6c.9,.23,1.61,.47,2.13,.74,.52,.27,.92,.61,1.2,1.02,.28,.41,.47,.96,.57,1.64,.17,1.16-.12,2.13-.88,2.9-.75,.77-1.96,1.28-3.64,1.52-.79,.11-1.58,.15-2.38,.11Z"/><path class="f" d="M58.73,86.58l-3.53,.51-.38-2.67,10.26-1.47,.38,2.67-3.55,.51,1.42,9.87-3.18,.46-1.42-9.87Z"/><path class="f" d="M76.83,93.49c-1.1-.4-2.02-1.06-2.75-1.96-.73-.9-1.19-1.99-1.38-3.27-.18-1.28-.05-2.46,.4-3.54,.45-1.08,1.15-1.97,2.09-2.66,.94-.7,2.05-1.14,3.32-1.32,1.26-.18,2.43-.07,3.54,.33s2.02,1.06,2.75,1.97c.73,.91,1.18,2,1.37,3.28,.18,1.28,.05,2.46-.39,3.53-.45,1.07-1.14,1.96-2.08,2.65-.94,.7-2.04,1.13-3.3,1.31-1.27,.18-2.45,.07-3.55-.33Zm4.81-3.33c.48-.36,.84-.84,1.08-1.42,.23-.58,.3-1.23,.2-1.95s-.34-1.32-.73-1.81-.86-.84-1.42-1.06c-.57-.22-1.18-.28-1.82-.19-.66,.09-1.23,.33-1.71,.69-.48,.37-.84,.84-1.07,1.42-.23,.58-.29,1.22-.19,1.94,.1,.72,.35,1.32,.73,1.82,.38,.49,.86,.85,1.43,1.06,.57,.21,1.18,.27,1.83,.18,.63-.09,1.19-.32,1.68-.68Z"/><path class="f" d="M86.51,79.86l8.9-1.28,.38,2.67-5.72,.82,.34,2.35,4.18-.6,.36,2.49-4.18,.6,.72,5.02-3.18,.46-1.8-12.54Z"/><path class="f" d="M96.31,78.46l8.9-1.28,.38,2.67-5.72,.82,.34,2.35,4.18-.6,.36,2.49-4.18,.6,.72,5.02-3.18,.46-1.8-12.54Z"/><path class="f" d="M106.1,77.05l3.17-.46,1.8,12.54-3.18,.46-1.8-12.54Z"/><path class="f" d="M115.5,87.98c-1.11-.38-2.02-1.02-2.72-1.93-.7-.91-1.15-2.02-1.34-3.35-.19-1.33-.08-2.53,.35-3.59,.42-1.07,1.11-1.94,2.07-2.62,.96-.68,2.12-1.12,3.48-1.31,.9-.13,1.71-.15,2.44-.08,.73,.08,1.42,.26,2.08,.56l.43,3.01c-.59-.34-1.23-.56-1.92-.66-.69-.1-1.47-.08-2.33,.04-1.23,.18-2.14,.63-2.72,1.37-.58,.74-.79,1.67-.62,2.81,.16,1.14,.63,1.98,1.4,2.53,.77,.55,1.76,.74,2.98,.56,.86-.12,1.62-.34,2.27-.64,.65-.3,1.24-.72,1.76-1.24l.43,3c-1.02,.94-2.47,1.54-4.34,1.81-1.36,.2-2.6,.11-3.71-.27Z"/><path class="f" d="M123.13,74.61l8.9-1.28,.38,2.67-5.72,.82,.34,2.35,4.18-.6,.36,2.49-4.18,.6,.34,2.35,5.72-.82,.38,2.67-8.9,1.28-1.8-12.54Z"/></g><g id="d"><image id="e" transform="translate(85.43 24.82) scale(.02)" xlink:href="postoffice_retur_ikon1.png"/></g></g></g></g></svg>