<svg xmlns="http://www.w3.org/2000/svg" width="106.21" height="128.67" viewBox="0 0 106.21 128.67"><defs><style>.cls-1{fill:#fff;}.cls-1,.cls-2,.cls-3,.cls-4,.cls-5{stroke:#1d1d1b;stroke-miterlimit:10;}.cls-1,.cls-2{stroke-width:4px;}.cls-2,.cls-3,.cls-4,.cls-5{fill:none;}.cls-3{stroke-width:3px;}.cls-4{stroke-width:2px;}</style></defs><g id="Layer_2" data-name="Layer 2"><g id="Layer_1-2" data-name="Layer 1"><rect class="cls-1" x="47.95" y="43.11" width="41.04" height="26.76" transform="translate(24.97 -20.89) rotate(21.14)"/><rect class="cls-2" x="7.57" y="79.35" width="89.91" height="40.15"/><rect class="cls-1" x="2" y="66.9" width="102.21" height="12.45"/><rect class="cls-3" x="3.76" y="1.5" width="15.35" height="15.35"/><rect class="cls-4" x="11.44" y="28.66" width="9.35" height="9.35"/><rect class="cls-3" x="29.68" y="10.86" width="14.21" height="14.21"/><line class="cls-3" x1="10.02" y1="66.9" x2="10.06" y2="49.68"/><line class="cls-3" x1="18.32" y1="45.96" x2="9.23" y2="51.09"/><line class="cls-3" x1="23.47" y1="48.58" x2="16.94" y2="46.05"/><line class="cls-3" x1="15.67" y1="65.25" x2="16.55" y2="52.34"/><line class="cls-3" x1="24.42" y1="47.2" x2="21.63" y2="54.4"/><line class="cls-3" x1="14.89" y1="52.88" x2="23.24" y2="53.36"/><rect class="cls-3" x="2" y="120.69" width="13.41" height="6.48"/><rect class="cls-3" x="89.48" y="120.69" width="13.41" height="6.48"/><rect class="cls-3" x="63.41" y="33.62" width="23.01" height="10.63" transform="translate(19.08 -24.39) rotate(21.14)"/><rect class="cls-3" x="59.67" y="29.12" width="32.58" height="15.32" transform="translate(18.37 -24.92) rotate(21.14)"/><rect class="cls-5" x="38.44" y="19.44" width="2.72" height="2.72"/><rect class="cls-5" x="13.79" y="4.8" width="2.46" height="2.46"/><rect class="cls-5" x="13.98" y="33" width="2.53" height="2.53"/></g></g></svg>