<svg xmlns="http://www.w3.org/2000/svg" width="91.27" height="81.87" viewBox="0 0 91.27 81.87"><g id="Layer_2" data-name="Layer 2"><g id="Layer_1-2" data-name="Layer 1"><path d="M91.27,81.87H0V0H91.27ZM5.13,76.75h81V5.13h-81Z"/><path d="M80.62,72h-70V8.82h70ZM15.78,66.85H75.49V13.94H15.78Z"/><rect x="40.19" y="19.93" width="3.85" height="21.6" transform="translate(-7.72 15.41) rotate(-19.03)"/><rect x="19.86" y="47.8" width="30.68" height="3.85" transform="translate(-24.56 37.9) rotate(-43.51)"/><rect x="69.29" y="39.66" width="4.34" height="2.56"/><rect x="17.89" y="39.11" width="4.34" height="2.56"/><rect x="44.75" y="61.63" width="4.34" height="2.56" transform="translate(109.82 15.99) rotate(90)"/><rect x="44.75" y="16.31" width="4.34" height="2.56" transform="translate(64.51 -29.32) rotate(90)"/><rect x="45.22" y="37.96" width="3.39" height="3.39"/></g></g></svg>