<svg width="27" height="27" viewBox="0 0 27 27" fill="none" xmlns="http://www.w3.org/2000/svg">
<path d="M14.9678 2.24541L14.9671 2.244C14.3879 1.07965 13.7511 0.75 13.3302 0.75C12.9081 0.75 12.2681 1.08119 11.6823 2.24619C11.6822 2.2464 11.6821 2.24661 11.682 2.24681L9.33728 6.93631C9.10991 7.39884 8.72367 7.80422 8.31695 8.10579C7.90924 8.40809 7.41125 8.65777 6.9108 8.74275L6.90817 8.7432L2.65521 9.44979C1.42531 9.65478 0.926657 10.1568 0.796368 10.5648C0.665851 10.9735 0.781911 11.6727 1.66224 12.553L4.96891 15.8597C5.3613 16.2521 5.63112 16.7857 5.78128 17.3103C5.93155 17.8352 5.98439 18.4291 5.86375 18.9674L5.86264 18.9723L5.86262 18.9723L4.91596 23.0657L4.91594 23.0658C4.55818 24.6118 4.88733 25.3096 5.19732 25.5358C5.5079 25.7624 6.27493 25.8633 7.64248 25.0517L7.64319 25.0513L11.6299 22.6913L11.6347 22.6884L11.6347 22.6884C12.1424 22.3931 12.7604 22.2667 13.3369 22.2667C13.9127 22.2667 14.5303 22.3928 15.0343 22.6914L19.02 25.0509L14.9678 2.24541ZM14.9678 2.24541L17.3117 6.93323C17.3122 6.93421 17.3127 6.93519 17.3131 6.93617C17.5406 7.39899 17.9272 7.80475 18.3366 8.10683C18.7473 8.40989 19.2489 8.65874 19.7553 8.74313L19.7557 8.74319M14.9678 2.24541L19.7557 8.74319M19.7557 8.74319L24.0086 9.44979C25.2393 9.6549 25.7415 10.1575 25.8729 10.5662C26.0037 10.9731 25.8896 11.671 25.0034 12.5512L25.0016 12.553M19.7557 8.74319L25.0016 12.553M25.0016 12.553L21.6949 15.8597C21.3025 16.2521 21.0327 16.7857 20.8825 17.3103C20.7323 17.8352 20.6794 18.4291 20.8001 18.9674L20.8001 18.9674M25.0016 12.553L20.8001 18.9674M20.8001 18.9674L20.8012 18.9723M20.8001 18.9674L20.8012 18.9723M20.8012 18.9723L21.7477 23.0651M20.8012 18.9723L21.7477 23.0651M21.7477 23.0651C22.1065 24.6218 21.7782 25.3172 21.4718 25.5406C21.1641 25.7649 20.3981 25.8648 19.0206 25.0513L21.7477 23.0651Z" fill="#FABF35" stroke="#FABF35" stroke-width="1.5" stroke-linecap="round" stroke-linejoin="round"/>
</svg>
