<svg width="30" height="29" viewBox="0 0 30 29" fill="none" xmlns="http://www.w3.org/2000/svg">
<rect width="30" height="29" fill="#51B37F"/>
<path d="M16.4713 6.72689L16.4721 6.72833L18.2912 10.0971C18.4896 10.4704 18.8168 10.7831 19.1475 11.009C19.482 11.2376 19.8911 11.4259 20.3069 11.4901L20.3073 11.4901L23.6066 11.9977C23.6067 11.9977 23.6068 11.9977 23.6069 11.9977C24.5591 12.1448 24.8558 12.4946 24.917 12.6709C24.9694 12.8219 24.9705 13.2286 24.2994 13.8458L24.2975 13.8475L21.7323 16.2228C21.3973 16.5329 21.1694 16.952 21.043 17.3608C20.917 17.7684 20.8683 18.2422 20.975 18.6831L20.975 18.6831L20.9763 18.6883L21.7106 21.628C21.7106 21.6281 21.7106 21.6283 21.7106 21.6284C21.9798 22.7101 21.7085 23.0733 21.5804 23.1597C21.4105 23.2745 20.8746 23.3773 19.8193 22.8001L16.7274 21.1054C16.3089 20.8758 15.8064 20.7831 15.3465 20.7831C14.8858 20.7831 14.3835 20.876 13.9629 21.1026L13.9628 21.1026L13.9581 21.1052L10.8653 22.8005L10.8646 22.8008C9.81795 23.376 9.2812 23.2728 9.10887 23.1563C8.97738 23.0675 8.7063 22.7016 8.97443 21.6287L8.97446 21.6286L9.70886 18.6883L9.70888 18.6883L9.71016 18.6831C9.81688 18.2422 9.76815 17.7684 9.64215 17.3608C9.51575 16.952 9.2879 16.5329 8.9529 16.2228L6.38766 13.8475C5.72104 13.2303 5.7198 12.8224 5.77256 12.6694C5.83306 12.494 6.12668 12.1447 7.07823 11.9977C7.07835 11.9977 7.07847 11.9977 7.07858 11.9977L10.3779 11.4901L10.3779 11.4901L10.3803 11.4898C10.7917 11.4251 11.1981 11.2359 11.53 11.008C11.8585 10.7825 12.1853 10.4701 12.3836 10.0971L14.2019 6.72977C14.2021 6.72951 14.2022 6.72924 14.2024 6.72897C14.6306 5.94054 15.0768 5.75 15.3413 5.75C15.6046 5.75 16.0482 5.9392 16.4713 6.72689Z" fill="white" stroke="white" stroke-width="1.5" stroke-linecap="round" stroke-linejoin="round"/>
</svg>
