<svg xmlns="http://www.w3.org/2000/svg" width="155.27" height="161.13" viewBox="0 0 155.27 161.13"><defs><style>.cls-1{fill:#fff;stroke:#1d1d1b;stroke-miterlimit:10;}</style></defs><g id="Layer_2" data-name="Layer 2"><g id="Layer_1-2" data-name="Layer 1"><rect class="cls-1" x="0.5" y="0.5" width="154.27" height="160.13"/><path d="M122,121.5H30.72V39.63H122Zm-86.15-5.12h81V44.76h-81Z"/><path d="M111.33,111.6h-70V48.44h70ZM46.5,106.47h59.7V53.57H46.5Z"/><rect x="70.91" y="59.56" width="3.85" height="21.6" transform="translate(-18.96 27.59) rotate(-19.03)"/><rect x="50.58" y="87.43" width="30.68" height="3.85" transform="translate(-43.41 69.93) rotate(-43.51)"/><rect x="100" y="79.29" width="4.34" height="2.56"/><rect x="48.61" y="78.74" width="4.34" height="2.56"/><rect x="75.46" y="101.25" width="4.34" height="2.56" transform="translate(180.17 24.9) rotate(90)"/><rect x="75.46" y="55.94" width="4.34" height="2.56" transform="translate(134.86 -20.41) rotate(90)"/><rect x="75.94" y="77.59" width="3.39" height="3.39"/></g></g></svg>