<?xml version="1.0" encoding="UTF-8"?><svg xmlns="http://www.w3.org/2000/svg" width="71.2" height="63.87" viewBox="0 0 71.2 63.87"><g id="a"/><g id="b"><g id="c"><g><path d="M71.2,63.87H0V0H71.2V63.87ZM4,59.87h63.2V4H4V59.87Z"/><path d="M62.89,56.15H8.31V6.88H62.89V56.15Zm-50.58-4H58.89V10.88H12.31V52.15Z"/><rect x="31.35" y="15.54" width="3" height="16.85" transform="translate(-6.02 12.02) rotate(-19.03)"/><rect x="15.5" y="37.29" width="23.93" height="3" transform="translate(-19.16 29.56) rotate(-43.51)"/><rect x="54.05" y="30.94" width="3.39" height="2"/><rect x="13.96" y="30.51" width="3.39" height="2"/><rect x="34.91" y="48.08" width="3.39" height="2" transform="translate(85.68 12.47) rotate(90)"/><rect x="34.91" y="12.73" width="3.39" height="2" transform="translate(50.33 -22.87) rotate(90)"/><rect x="35.28" y="29.62" width="2.64" height="2.64"/></g></g></g></svg>