<svg width="65" height="47" viewBox="0 0 65 47" fill="none" xmlns="http://www.w3.org/2000/svg">
<g filter="url(#filter0_d_485_3726)">
<rect x="4" width="57" height="39" rx="4" fill="black"/>
<path fill-rule="evenodd" clip-rule="evenodd" d="M17.5921 14.5161C18.3576 14.5805 19.1231 14.1295 19.6015 13.5576C20.072 12.9697 20.383 12.1804 20.3032 11.375C19.6255 11.4072 18.7882 11.826 18.3098 12.414C17.8712 12.9214 17.4964 13.7429 17.5921 14.5161ZM26.6983 24.8896V12.3334H31.3631C33.7712 12.3334 35.4537 14.0086 35.4537 16.4571C35.4537 18.9055 33.7393 20.5968 31.2993 20.5968H28.628V24.8896H26.6983ZM20.2952 14.6691C19.6208 14.6299 19.0055 14.8739 18.5084 15.0711C18.1886 15.1979 17.9177 15.3053 17.7117 15.3053C17.4804 15.3053 17.1984 15.1922 16.8817 15.0651C16.4668 14.8986 15.9924 14.7083 15.4949 14.7174C14.3546 14.7335 13.2941 15.3859 12.712 16.4248C11.5159 18.5028 12.401 21.5794 13.5573 23.2707C14.1234 24.1083 14.8012 25.0265 15.6943 24.9943C16.0872 24.9793 16.3698 24.8582 16.6623 24.7328C16.999 24.5885 17.3488 24.4386 17.8951 24.4386C18.4223 24.4386 18.7569 24.5846 19.078 24.7248C19.3833 24.858 19.6765 24.986 20.1118 24.9782C21.0368 24.9621 21.6189 24.1406 22.185 23.3029C22.796 22.404 23.0645 21.5266 23.1052 21.3934L23.11 21.378C23.109 21.3771 23.1015 21.3736 23.0882 21.3674L23.0882 21.3674C22.8839 21.273 21.3229 20.5511 21.3079 18.6155C21.2929 16.9909 22.5461 16.1677 22.7434 16.0381L22.7434 16.0381L22.7434 16.0381C22.7554 16.0302 22.7635 16.0249 22.7671 16.0221C21.9697 14.8302 20.7258 14.7013 20.2952 14.6691ZM38.9782 24.9862C40.1903 24.9862 41.3146 24.3661 41.8249 23.3835H41.8648V24.8896H43.6509V18.6397C43.6509 16.8275 42.2156 15.6597 40.0069 15.6597C37.9576 15.6597 36.4425 16.8437 36.3867 18.4706H38.125C38.2686 17.6974 38.9782 17.19 39.9511 17.19C41.1312 17.19 41.793 17.7457 41.793 18.7686V19.4612L39.3849 19.6062C37.1442 19.7431 35.9322 20.6693 35.9322 22.2801C35.9322 23.907 37.1841 24.9862 38.9782 24.9862ZM39.4964 23.4963C38.4678 23.4963 37.8139 22.9969 37.8139 22.2318C37.8139 21.4425 38.4439 20.9834 39.6479 20.9109L41.7929 20.774V21.4828C41.7929 22.6586 40.8041 23.4963 39.4964 23.4963ZM49.5755 25.3809C48.802 27.5796 47.9169 28.3045 46.0351 28.3045C45.8915 28.3045 45.4131 28.2884 45.3015 28.2562V26.7501C45.4211 26.7662 45.7161 26.7823 45.8676 26.7823C46.7208 26.7823 47.1993 26.4199 47.4943 25.4775L47.6697 24.9218L44.4004 15.7805H46.4178L48.6904 23.1983H48.7302L51.0028 15.7805H52.9644L49.5755 25.3809ZM28.6278 13.9764H30.8526C32.5271 13.9764 33.484 14.8785 33.484 16.4651C33.484 18.0518 32.5271 18.9619 30.8446 18.9619H28.6278V13.9764Z" fill="white"/>
</g>
<defs>
<filter id="filter0_d_485_3726" x="0" y="0" width="65" height="47" filterUnits="userSpaceOnUse" color-interpolation-filters="sRGB">
<feFlood flood-opacity="0" result="BackgroundImageFix"/>
<feColorMatrix in="SourceAlpha" type="matrix" values="0 0 0 0 0 0 0 0 0 0 0 0 0 0 0 0 0 0 127 0" result="hardAlpha"/>
<feOffset dy="4"/>
<feGaussianBlur stdDeviation="2"/>
<feComposite in2="hardAlpha" operator="out"/>
<feColorMatrix type="matrix" values="0 0 0 0 0 0 0 0 0 0 0 0 0 0 0 0 0 0 0.25 0"/>
<feBlend mode="normal" in2="BackgroundImageFix" result="effect1_dropShadow_485_3726"/>
<feBlend mode="normal" in="SourceGraphic" in2="effect1_dropShadow_485_3726" result="shape"/>
</filter>
</defs>
</svg>
