<svg width="65" height="47" viewBox="0 0 65 47" fill="none" xmlns="http://www.w3.org/2000/svg">
<g filter="url(#filter0_d_485_3727)">
<rect x="4" width="57" height="39" rx="4" fill="#FEB4C7"/>
<path d="M12.833 24.9919H10.5137V14.625H12.833V24.9919Z" fill="white"/>
<path d="M18.6235 14.625H16.3544C16.3544 16.5328 15.4994 18.2838 14.0086 19.4294L13.1096 20.12L16.5928 24.9923H19.4567L16.2517 20.509C17.7709 18.9572 18.6235 16.8694 18.6235 14.625Z" fill="white"/>
<path d="M22.3229 24.9891H20.1325V14.627H22.3229V24.9891Z" fill="white"/>
<path fill-rule="evenodd" clip-rule="evenodd" d="M28.9407 17.8212V18.2797C28.3497 17.8661 27.6363 17.6231 26.8669 17.6231C24.8306 17.6231 23.1799 19.3164 23.1799 21.4053C23.1799 23.4941 24.8306 25.1875 26.8669 25.1875C27.6363 25.1875 28.3497 24.9444 28.9407 24.5309V24.989H31.0328V17.8212H28.9407ZM28.9343 21.4053C28.9343 22.4238 28.0856 23.2496 27.0386 23.2496C25.9917 23.2496 25.143 22.4238 25.143 21.4053C25.143 20.3868 25.9917 19.5613 27.0386 19.5613C28.0856 19.5613 28.9343 20.3868 28.9343 21.4053Z" fill="white"/>
<path fill-rule="evenodd" clip-rule="evenodd" d="M51.0115 18.2797V17.8212H53.1035V24.989H51.0115V24.5309C50.4205 24.9444 49.7071 25.1875 48.9376 25.1875C46.9014 25.1875 45.2506 23.4941 45.2506 21.4053C45.2506 19.3164 46.9014 17.6231 48.9376 17.6231C49.7071 17.6231 50.4205 17.8661 51.0115 18.2797ZM49.1094 23.2496C50.1564 23.2496 51.005 22.4238 51.005 21.4053C51.005 20.3868 50.1564 19.5613 49.1094 19.5613C48.0624 19.5613 47.2138 20.3868 47.2138 21.4053C47.2138 22.4238 48.0624 23.2496 49.1094 23.2496Z" fill="white"/>
<path d="M41.5331 17.6284C40.6974 17.6284 39.9065 17.8946 39.3777 18.6288V17.8216H37.2946V24.9891H39.4033V21.2223C39.4033 20.1323 40.1158 19.5986 40.9737 19.5986C41.8932 19.5986 42.4217 20.162 42.4217 21.2075V24.9891H44.5113V20.4309C44.5113 18.7628 43.2184 17.6284 41.5331 17.6284Z" fill="white"/>
<path d="M34.2691 17.8213V18.7549C34.6884 18.1949 35.4698 17.8217 36.3194 17.8217V19.9075L36.3127 19.9073L36.3032 19.9068L36.2945 19.9065C35.4668 19.9065 34.2738 20.5134 34.2738 21.6425V24.9891H32.1271V17.8213H34.2691Z" fill="white"/>
<path d="M54.0115 23.7935C54.0115 23.0496 54.5992 22.4467 55.3243 22.4467C56.0493 22.4467 56.6371 23.0496 56.6371 23.7935C56.6371 24.5371 56.0493 25.1402 55.3243 25.1402C54.5992 25.1402 54.0115 24.5371 54.0115 23.7935Z" fill="white"/>
</g>
<defs>
<filter id="filter0_d_485_3727" x="0" y="0" width="65" height="47" filterUnits="userSpaceOnUse" color-interpolation-filters="sRGB">
<feFlood flood-opacity="0" result="BackgroundImageFix"/>
<feColorMatrix in="SourceAlpha" type="matrix" values="0 0 0 0 0 0 0 0 0 0 0 0 0 0 0 0 0 0 127 0" result="hardAlpha"/>
<feOffset dy="4"/>
<feGaussianBlur stdDeviation="2"/>
<feComposite in2="hardAlpha" operator="out"/>
<feColorMatrix type="matrix" values="0 0 0 0 0 0 0 0 0 0 0 0 0 0 0 0 0 0 0.25 0"/>
<feBlend mode="normal" in2="BackgroundImageFix" result="effect1_dropShadow_485_3727"/>
<feBlend mode="normal" in="SourceGraphic" in2="effect1_dropShadow_485_3727" result="shape"/>
</filter>
</defs>
</svg>
