<svg width="57" height="40" viewBox="0 0 57 40" fill="none" xmlns="http://www.w3.org/2000/svg">
<path d="M24.8977 25.3142C23.9015 25.3142 23.0032 24.7929 22.6215 23.9931L14.1235 6.1626C13.6035 5.07161 14.1995 3.82086 15.4547 3.36884L24.3556 0.164806C24.9583 -0.052284 25.6356 -0.0523328 26.2383 0.16467C26.8411 0.381673 27.32 0.797943 27.5695 1.32187L36.0676 19.1531C36.5867 20.2437 35.9908 21.4937 34.7363 21.9457L25.8355 25.1512C25.5382 25.2586 25.2196 25.3139 24.8977 25.3142ZM25.2971 1.15233C25.148 1.15254 25.0003 1.17836 24.8627 1.22829L15.9614 4.43233C15.6831 4.5325 15.4621 4.72465 15.3469 4.96649C15.2317 5.20834 15.2317 5.48006 15.3471 5.72187L23.8451 23.5534C24.0857 24.0565 24.7493 24.2956 25.3288 24.0877L34.2297 20.8815C34.5079 20.7813 34.729 20.5892 34.8442 20.3473C34.9594 20.1055 34.9593 19.8338 34.844 19.592L26.3459 1.76224C26.17 1.39357 25.7563 1.15299 25.2971 1.15233Z" fill="#0338E1"/>
<path style="mix-blend-mode:multiply" opacity="0.5" d="M28.1299 2.49696L26.9062 2.9375L30.2709 9.99763L31.4946 9.55709L28.1299 2.49696Z" fill="url(#paint0_linear_485_3712)"/>
<path style="mix-blend-mode:multiply" opacity="0.5" d="M34.2783 18.4073L35.502 17.9668L31.6932 9.97499L30.4696 10.4155L34.2783 18.4073Z" fill="url(#paint1_linear_485_3712)"/>
<path d="M32.7328 13.1098C30.1872 14.0272 28.0617 15.2918 26.6701 16.8162L23.082 9.28445C24.7187 7.63177 26.8019 6.35818 29.1447 5.57803C31.6903 4.6606 34.2621 4.21656 36.4471 4.47528L40.0359 12.0067C37.534 11.8429 35.0244 12.2219 32.7328 13.1098Z" fill="#0338E1"/>
<g style="mix-blend-mode:multiply" opacity="0.25">
<path style="mix-blend-mode:multiply" opacity="0.9" d="M32.7328 13.1098C30.1872 14.0272 28.0617 15.2918 26.6701 16.8162L23.082 9.28445C24.7187 7.63177 26.8019 6.35818 29.1447 5.57803C31.6903 4.6606 34.2621 4.21656 36.4471 4.47528L40.0359 12.0067C37.534 11.8429 35.0244 12.2219 32.7328 13.1098Z" fill="url(#paint2_linear_485_3712)"/>
<path style="mix-blend-mode:multiply" opacity="0.7" d="M32.7328 13.1098C30.1872 14.0272 28.0617 15.2918 26.6701 16.8162L23.082 9.28445C24.7187 7.63177 26.8019 6.35818 29.1447 5.57803C31.6903 4.6606 34.2621 4.21656 36.4471 4.47528L40.0359 12.0067C37.534 11.8429 35.0244 12.2219 32.7328 13.1098Z" fill="url(#paint3_linear_485_3712)"/>
</g>
<path d="M33.9026 15.4073C31.1472 15.4073 28.6248 15.87 26.6699 16.8146V9.1992C28.9096 8.2169 31.3948 7.73332 33.9026 7.79186C36.658 7.79186 39.2298 8.23589 41.1348 9.20103V16.8164C38.8956 15.8333 36.4104 15.3491 33.9026 15.4073Z" fill="#0338E1"/>
<path d="M0.422941 37.7585L2.65227 31.6337C2.67567 31.5489 2.75912 31.4867 2.85916 31.4796H3.97805C4.07835 31.4918 4.16275 31.5511 4.19761 31.6337L5.93294 35.4979C5.96672 35.575 6.05539 35.5824 6.08494 35.4979L7.81183 31.6337C7.84669 31.5511 7.93109 31.4918 8.03139 31.4796H9.15027C9.25031 31.4867 9.33377 31.5489 9.35716 31.6337L11.5401 37.7585C11.5657 37.8056 11.5606 37.8611 11.5268 37.9041C11.4929 37.9472 11.4352 37.9714 11.3754 37.9677H10.0538C9.95953 37.9714 9.87581 37.9157 9.85539 37.8356L8.44516 33.8576C8.42405 33.7805 8.32272 33.7805 8.29316 33.8576L6.60427 37.8062C6.57552 37.9013 6.4767 37.9676 6.36361 37.9677H5.59516C5.48306 37.9696 5.38534 37.9017 5.36294 37.8062L3.64027 33.8576C3.6065 33.7805 3.51783 33.7805 3.49672 33.8576L2.0485 37.8356C2.02601 37.9177 1.93847 37.9736 1.84161 37.9677H0.574941C0.516351 37.9695 0.461047 37.9442 0.42974 37.9011C0.398432 37.858 0.395843 37.8037 0.422941 37.7585ZM11.9749 35.575C11.9509 34.5316 12.6556 33.5793 13.7579 33.1654C14.8602 32.7516 16.141 32.9585 16.9986 33.689C17.8562 34.4194 18.1201 35.5282 17.6663 36.4944C17.2125 37.4607 16.1312 38.0922 14.9305 38.0924C14.1491 38.1156 13.3908 37.8595 12.8324 37.3839C12.274 36.9082 11.9641 36.2545 11.9749 35.575ZM16.3661 35.575C16.4076 35.1024 16.141 34.6493 15.6758 34.402C15.2106 34.1546 14.6251 34.1546 14.1599 34.402C13.6946 34.6493 13.4281 35.1024 13.4696 35.575C13.4281 36.0477 13.6946 36.5007 14.1599 36.7481C14.6251 36.9954 15.2106 36.9954 15.6758 36.7481C16.141 36.5007 16.4076 36.0477 16.3661 35.575ZM20.4912 37.5787C20.3814 37.5016 20.2843 37.531 20.2843 37.6631V37.7989C20.2844 37.8954 20.1968 37.9747 20.0858 37.9787H19.0556C18.9432 37.9749 18.853 37.8966 18.8487 37.7989V31.6631C18.853 31.5654 18.9432 31.487 19.0556 31.4833H20.1407C20.2517 31.4872 20.3393 31.5666 20.3392 31.6631V33.3952C20.3392 33.52 20.4363 33.5567 20.5925 33.4612C21.0081 33.1907 21.513 33.044 22.0323 33.0429C23.5354 33.0429 24.6881 34.1438 24.6881 35.5603C24.7235 36.2078 24.4566 36.8404 23.9478 37.3144C23.439 37.7884 22.7315 38.0637 21.9858 38.0778C21.434 38.0766 20.9019 37.899 20.4912 37.5787ZM23.1934 35.575C23.2224 35.1084 22.9524 34.6661 22.4918 34.4252C22.0311 34.1844 21.455 34.1844 20.9943 34.4252C20.5337 34.6661 20.2637 35.1084 20.2927 35.575C20.2779 35.9175 20.4221 36.2508 20.6929 36.4999C20.9636 36.749 21.3383 36.8931 21.7325 36.8998C22.1286 36.893 22.5052 36.7495 22.7794 36.501C23.0535 36.2524 23.2024 35.9192 23.1934 35.575ZM25.5958 31.9273C25.5958 31.522 25.9739 31.1934 26.4403 31.1934C26.9066 31.1934 27.2847 31.522 27.2847 31.9273C27.2847 32.3327 26.9066 32.6612 26.4403 32.6612C25.9739 32.6612 25.5958 32.3327 25.5958 31.9273ZM25.6718 37.7989V33.3585C25.6717 33.262 25.7593 33.1826 25.8703 33.1787H26.9554C27.0678 33.1824 27.1579 33.2608 27.1623 33.3585V37.7989C27.1579 37.8966 27.0678 37.9749 26.9554 37.9787H25.8703C25.761 37.9729 25.6758 37.894 25.6761 37.7989H25.6718ZM28.3909 36.331V31.6631C28.3908 31.5666 28.4784 31.4872 28.5894 31.4833H29.6745C29.7869 31.487 29.8771 31.5654 29.8814 31.6631V36.375C29.8814 36.6796 30.0334 36.8814 30.4176 36.8814C30.5319 36.8814 30.6245 36.9619 30.6245 37.0612V37.8429C30.62 37.9393 30.5287 38.0155 30.4176 38.0154C28.9736 38.0154 28.3909 37.6044 28.3909 36.331ZM31.0256 35.597C31.0256 34.7107 31.5696 33.8918 32.4527 33.4487C33.3358 33.0055 34.4238 33.0055 35.3069 33.4487C36.19 33.8918 36.7341 34.7107 36.7341 35.597C36.7341 35.7695 36.6792 35.9126 36.4807 35.9126H32.7061C32.6089 35.9126 32.5752 35.9603 32.5836 36.0374C32.6771 36.6077 33.2607 37.0189 33.9221 36.9805C34.3227 36.9852 34.705 36.8345 34.9649 36.5695C35.0455 36.4712 35.1765 36.4135 35.3154 36.4154H36.3118C36.4892 36.4154 36.5652 36.5218 36.4976 36.6723C35.9057 37.7212 34.5603 38.2773 33.2506 38.0146C31.9409 37.7519 31.012 36.7396 31.0087 35.5713L31.0256 35.597ZM35.0325 35.1567C35.1085 35.1567 35.1423 35.1273 35.1296 35.0502C35.0146 34.5235 34.4797 34.1454 33.8629 34.1548C33.2603 34.1557 32.7367 34.5152 32.5963 35.0246C32.5752 35.0906 32.5963 35.1567 32.6849 35.1567H35.0325ZM37.6461 37.7989V31.6631C37.646 31.5666 37.7335 31.4872 37.8445 31.4833H41.3025C42.8816 31.4833 43.9583 32.2833 43.9583 33.6301C43.9583 34.9768 42.7381 35.8062 41.2265 35.8062H39.3941C39.3383 35.8012 39.283 35.8188 39.2442 35.8539C39.2054 35.8891 39.1875 35.9378 39.1956 35.986V37.7989C39.1913 37.8966 39.1011 37.9749 38.9887 37.9787H37.8487C37.7361 37.9767 37.646 37.8968 37.6461 37.7989ZM41.2265 34.709C41.5445 34.7051 41.8476 34.5909 42.0681 34.3916C42.2886 34.1924 42.4082 33.9248 42.4003 33.6484C42.4136 33.3745 42.2942 33.1082 42.0711 32.9143C41.848 32.7205 41.5417 32.6167 41.2265 32.6282H39.3814C39.2505 32.6282 39.1956 32.6869 39.1956 32.8007V34.5365C39.1956 34.6502 39.2505 34.709 39.3814 34.709H41.2265ZM44.4734 35.575C44.4449 34.926 44.7171 34.2942 45.229 33.821C45.7408 33.3478 46.4497 33.0728 47.1967 33.0576C47.7358 33.0601 48.2553 33.2337 48.6576 33.5457C48.7547 33.6227 48.8645 33.6117 48.8645 33.4979V33.3548C48.8645 33.2596 48.9533 33.1823 49.0629 33.1823H50.0932C50.2056 33.1861 50.2957 33.2645 50.3001 33.3622V36.5218C50.3001 36.7603 50.3972 36.8668 50.5872 36.8888C50.6857 36.8905 50.7664 36.9574 50.7729 37.0429V37.8723C50.7729 37.9614 50.6898 38.0337 50.5872 38.0337C49.8609 38.0337 49.4345 37.8539 49.1938 37.4906C49.1263 37.3952 49.0503 37.3768 48.9405 37.4723C48.4767 37.8872 47.837 38.1181 47.1714 38.1108C46.4242 38.0919 45.7172 37.8124 45.2096 37.3354C44.7021 36.8584 44.4368 36.2239 44.4734 35.575ZM48.8645 35.575C48.906 35.1037 48.6402 34.6519 48.1763 34.4053C47.7124 34.1586 47.1286 34.1586 46.6647 34.4053C46.2008 34.6519 45.935 35.1037 45.9765 35.575C45.935 36.0463 46.2008 36.4981 46.6647 36.7448C47.1286 36.9914 47.7124 36.9914 48.1763 36.7448C48.6402 36.4981 48.906 36.0463 48.8645 35.575ZM51.3007 39.6337V38.8594C51.3053 38.763 51.3966 38.6869 51.5076 38.6869C52.2144 38.7343 52.8668 38.3553 53.0867 37.7695C53.1238 37.6467 53.1088 37.5165 53.0445 37.4025L51.0263 33.4319C50.9914 33.3779 50.9925 33.3118 51.0291 33.2587C51.0658 33.2056 51.1324 33.1737 51.2036 33.175H52.2887C52.3985 33.175 52.4661 33.2521 52.5083 33.3475L53.7749 35.8869C53.8636 36.0888 54.0072 36.0778 54.1043 35.8869L55.3118 33.3401C55.3541 33.2447 55.4089 33.186 55.5187 33.186H56.5785C56.6435 33.1831 56.7057 33.2092 56.7434 33.2554C56.7811 33.3015 56.789 33.3612 56.7643 33.4135L54.6912 37.6961C53.9354 39.2521 53.1332 39.8319 51.5287 39.8319C51.4672 39.8351 51.407 39.8153 51.3634 39.7774C51.3198 39.7395 51.297 39.6872 51.3007 39.6337Z" fill="#0338E1"/>
<defs>
<linearGradient id="paint0_linear_485_3712" x1="30.0599" y1="8.08861" x2="29.6442" y2="2.50783" gradientUnits="userSpaceOnUse">
<stop stop-color="#504678"/>
<stop offset="0.302" stop-color="#504678" stop-opacity="0.616"/>
<stop offset="0.608" stop-color="#504678" stop-opacity="0.283"/>
<stop offset="0.852" stop-color="#504678" stop-opacity="0.076"/>
<stop offset="1" stop-color="#504678" stop-opacity="0"/>
</linearGradient>
<linearGradient id="paint1_linear_485_3712" x1="32.0108" y1="12.1076" x2="32.2712" y2="18.3531" gradientUnits="userSpaceOnUse">
<stop stop-color="#504678"/>
<stop offset="0.302" stop-color="#504678" stop-opacity="0.616"/>
<stop offset="0.608" stop-color="#504678" stop-opacity="0.283"/>
<stop offset="0.852" stop-color="#504678" stop-opacity="0.076"/>
<stop offset="1" stop-color="#504678" stop-opacity="0"/>
</linearGradient>
<linearGradient id="paint2_linear_485_3712" x1="25.4051" y1="12.6378" x2="31.5021" y2="7.85556" gradientUnits="userSpaceOnUse">
<stop stop-color="#504678"/>
<stop offset="0.179" stop-color="#504678" stop-opacity="0.872"/>
<stop offset="0.526" stop-color="#504678" stop-opacity="0.536"/>
<stop offset="1" stop-color="#504678" stop-opacity="0"/>
</linearGradient>
<linearGradient id="paint3_linear_485_3712" x1="31.1731" y1="8.74359" x2="30.947" y2="6.66259" gradientUnits="userSpaceOnUse">
<stop stop-color="#504678"/>
<stop offset="0.643" stop-color="#504678" stop-opacity="0.332"/>
<stop offset="1" stop-color="#504678" stop-opacity="0"/>
</linearGradient>
</defs>
</svg>
