<svg width="66" height="48" viewBox="0 0 66 48" fill="none" xmlns="http://www.w3.org/2000/svg">
<g filter="url(#filter0_d_485_3724)">
<rect x="4" width="58" height="40" rx="4" fill="#00579F"/>
<path d="M28.8146 26.8048H25.5352L27.5864 14.0488H30.8656L28.8146 26.8048Z" fill="white"/>
<path d="M40.7007 14.3614C40.0539 14.1033 39.0279 13.8184 37.7593 13.8184C34.5208 13.8184 32.2402 15.5553 32.2262 18.0385C32.1993 19.8706 33.859 20.8882 35.1004 21.4991C36.3691 22.1234 36.8004 22.5308 36.8004 23.0872C36.7875 23.9418 35.7752 24.3357 34.831 24.3357C33.5217 24.3357 32.8202 24.1326 31.754 23.6572L31.3222 23.4534L30.8633 26.3168C31.6324 26.6692 33.0495 26.982 34.5208 26.9957C37.9618 26.9957 40.202 25.2857 40.2286 22.6394C40.2417 21.1873 39.3653 20.0746 37.4758 19.1654C36.3288 18.5817 35.6264 18.1882 35.6264 17.591C35.6398 17.0481 36.2205 16.4921 37.5153 16.4921C38.5814 16.4648 39.3647 16.7226 39.9581 16.9805L40.2547 17.1159L40.7007 14.3614Z" fill="white"/>
<path d="M45.0621 22.2858C45.3322 21.553 46.3714 18.7168 46.3714 18.7168C46.3578 18.744 46.641 17.9705 46.8029 17.4956L47.0321 18.5947C47.0321 18.5947 47.6531 21.6481 47.788 22.2858C47.2755 22.2858 45.7099 22.2858 45.0621 22.2858ZM49.1102 14.0488H46.5735C45.7913 14.0488 45.197 14.2793 44.8595 15.1072L39.9883 26.8046H43.4293C43.4293 26.8046 43.9958 25.2303 44.1176 24.8912C44.4951 24.8912 47.8425 24.8912 48.3281 24.8912C48.4223 25.339 48.7194 26.8046 48.7194 26.8046H51.7559L49.1102 14.0488V14.0488Z" fill="white"/>
<path d="M22.7959 14.0488L19.5842 22.7472L19.2333 20.9831C18.6395 18.9475 16.7773 16.7359 14.6992 15.6362L17.641 26.7913H21.1089L26.2636 14.0488H22.7959V14.0488Z" fill="white"/>
<path d="M16.6018 14.0488H11.3255L11.2715 14.3066C15.3873 15.3651 18.1132 17.9167 19.2331 20.9836L18.0861 15.1211C17.8973 14.3064 17.317 14.0757 16.6018 14.0488Z" fill="#FAA61A"/>
</g>
<defs>
<filter id="filter0_d_485_3724" x="0" y="0" width="66" height="48" filterUnits="userSpaceOnUse" color-interpolation-filters="sRGB">
<feFlood flood-opacity="0" result="BackgroundImageFix"/>
<feColorMatrix in="SourceAlpha" type="matrix" values="0 0 0 0 0 0 0 0 0 0 0 0 0 0 0 0 0 0 127 0" result="hardAlpha"/>
<feOffset dy="4"/>
<feGaussianBlur stdDeviation="2"/>
<feComposite in2="hardAlpha" operator="out"/>
<feColorMatrix type="matrix" values="0 0 0 0 0 0 0 0 0 0 0 0 0 0 0 0 0 0 0.25 0"/>
<feBlend mode="normal" in2="BackgroundImageFix" result="effect1_dropShadow_485_3724"/>
<feBlend mode="normal" in="SourceGraphic" in2="effect1_dropShadow_485_3724" result="shape"/>
</filter>
</defs>
</svg>
