<?xml version="1.0" encoding="UTF-8"?><svg id="a" xmlns="http://www.w3.org/2000/svg" width="825.07" height="1201.43" viewBox="0 0 825.07 1201.43"><defs><style>.b{fill:#fdeef4;}</style></defs><path class="b" d="M799.18,907.46s-194.28-121.3-100.17-211.22,134.56-269.14,65.49-347.42c-69.06-78.28-22.09-175.97-22.09-175.97C820.04,12.01,672.08-4.94,621.62,40.9c-50.45,45.84-87.72,51.77-87.72,51.77,0,0-12.2,5.28-13.39-6.39-4.87-47.59-45.8-91.07-92.13-50.59-46.33,40.48-100.39,19.71-100.39,19.71-178.94-112.37-92.83,63.22-92.83,63.22,57.88,98.84-57.88,127.39-57.88,127.39,0,0-282.37,93.56-134.38,295.97,103.14,141.08,94.74,196.4,80.17,216.97-1.68,3.08-3.58,6.04-5.62,9.06-1.5,2.22-3.13,4.2-4.88,5.99-7.68,11.58-17.88,22.03-26.2,32.24-8.93,10.95-18.02,21.76-27.19,32.5-.71,.83-1.44,1.66-2.16,2.48-116.79,186.84,9.7,263.79,9.7,263.79,0,0,141.18,158.19,190.51-59.54,49.33-217.73,83.35-61.24,83.35-61.24,73.14,410.82,205.04,78.43,205.04,78.43,0,0,50.49-171.1,74.33-24.45,23.84,146.65,112.82,74.55,112.82,74.55,156.72-123.81,66.41-205.31,66.41-205.31Z"/></svg>