<?xml version="1.0" encoding="UTF-8"?><svg id="Layer_2" xmlns="http://www.w3.org/2000/svg" width="1248.61" height="3123.4" xmlns:xlink="http://www.w3.org/1999/xlink" viewBox="0 0 1248.61 3123.4"><defs><style>.cls-1{fill:#fdeef4;}</style></defs><g id="Layer_1-2"><g><image width="1000" height="1000" transform="scale(.63)" xlink:href="forsidee1.png"/><image width="1000" height="1000" transform="translate(0 625.56) scale(.63)" xlink:href="forsidee2.png"/><image width="1000" height="1000" transform="translate(0 1247.92) scale(.63)" xlink:href="forsidee3.png"/><image width="1000" height="1000" transform="translate(0 1872.28) scale(.63)" xlink:href="forsidee4.png"/><image width="1000" height="1000" transform="translate(625.56 3123.4) rotate(-180) scale(.63)" xlink:href="forsidee5.png"/><path class="cls-1" d="M38.35,2289.91c-4.11,126.57,155,233.26,100.96,300.56-193.29,240.7,39.67,362.3,224.12,157.39,67.8-75.32,193.69,89.82,332.56,19.28,69.46-35.28,151.15-37.23,221.84-4.46l115.06,53.34c88.8,41.17,193.38-11.59,211.67-107.75,17.87-93.95-26.9-179.11-65.08-231.76-27.65-38.12-40.28-85.07-35.14-131.87,5.68-51.71,66.47-190.2,54.55-254.79-19.33-104.82-157.88-115.78-79.23-201.77,151.4-165.55,154.59-337.66,74.62-503.85-87.58-182.01-42.74-340.48-42.74-340.48,150.19-311.21-136.1-344-233.72-255.31-97.62,88.69-151.69,110.99-151.69,110.99,0,0-31.29,3.25-43.95-23.18-40-83.47-88.62-176.21-178.27-97.89-89.65,78.31-194.24,38.13-194.24,38.13-276.13-173.4-270.44,13.12-256.81,95.76,3.17,19.22,9.48,37.75,18.26,55.14,92.65,183.61-23.7,350.57-23.7,350.57,0,0-233.67,320.66,74.23,695.59,178.24,217.04-87.11,155.74-123.3,276.37"/></g></g></svg>