<?xml version="1.0" encoding="UTF-8"?><svg id="a" xmlns="http://www.w3.org/2000/svg" width="595.28" height="456.38" viewBox="0 0 595.28 456.38"><defs><style>.b{fill:#2300d4;}</style></defs><path class="b" d="M29.3,330.28c31.25-65.05,30.84-107.72,30.07-118.67-.14-2.02-.19-4.04-.19-6.07,.03-11.15-1.89-49.32-26.9-92.46C4.23,64.7-13.92,4.44,51.73,13.65c7.57,1.06,14.78,3.88,21.08,8.2,19.14,13.14,70.49,43.57,116.63,28.18,6.09-2.03,11.67-5.35,16.51-9.58,17.52-15.29,73.92-58.24,94.58,1.84,22.2,64.58,52.55,33.83,68.09,22.14,1.14-.86,2.05-1.97,3.16-2.86,18.04-14.31,154.42-122.59,180.86,21.31,.15,.82,11.6,64.56-73.99,160.35-1.21,1.35-2.35,2.76-3.39,4.24-9.74,13.71-51.27,78.34,37.25,70.3,9.11-.83,17.83-4.18,25.13-9.69,19.08-14.4,60.83-36.55,52.73,53.1-10.43,115.49-146.79,73.02-146.79,73.02,0,0-78.45-27.98-15.55-167.64,.46-1.02,.89-2.07,1.28-3.12,6.13-16.69,52.99-151.31-25.97-165.28-78.06-13.82-101.76,87.64-104.81,102.51-.24,1.19-.53,2.36-.86,3.52-3.25,11.39-20,77.1,9.85,126.28,3.01,4.95,6.98,9.25,11.53,12.83,20.93,16.44,87.77,73.46,34.06,92.25-1.61,.56-3.26,1.02-4.92,1.4-21.85,5.01-194.9,41.3-117.67-85.14,.85-1.4,1.64-2.82,2.35-4.3,8.77-18.14,56.84-129.09-29.35-222.91-77.75-84.62-97.15,27.68-101.55,69.45-.97,9.24-.9,18.54,.23,27.76,3.5,28.53,10.82,91.42,35.88,119.33,.84,.94,6.94,9.32,7.6,10.39,7.13,11.65,45.12,77.48-3.49,88.19-43.78,9.65-112.91,8.96-129.49-7.46-10.76-10.66-10.87-44.85,16.59-102.02Z"/></svg>