<?xml version="1.0" encoding="UTF-8"?><svg id="Layer_2" xmlns="http://www.w3.org/2000/svg" width="586.42" height="434.35" viewBox="0 0 586.42 434.35"><defs><style>.cls-1{fill:#1130e1;}</style></defs><g id="Layer_1-2"><path class="cls-1" d="M7.93,424.13c-4.12-3.76-6.76-8.85-7.46-14.38-1.69-13.33,.03-41.13,23.85-90.72,33.35-69.42,30.64-113.35,29.92-120.44-.07-.7-.09-1.4-.07-2.1,.22-7.09,.21-47.96-26.87-94.66C-2.07,51.15-20.59-12.55,56.64,4.17c2.17,.47,4.21,1.4,5.99,2.72,13.39,9.92,77.29,53.69,130.64,28.34,1.47-.7,2.83-1.61,4.02-2.72,10.96-10.2,75.78-66.87,98.26-1.47,22.88,66.56,63.18,27.31,68.67,21.54,.47-.49,.96-.96,1.49-1.38,12.51-10.1,156.27-122.45,183.02,25.96,.09,.48,.2,.95,.33,1.42,1.62,5.94,11.76,56.48-76.5,154.66-.31,.34-.59,.69-.87,1.06-5.66,7.58-62.26,86.42,47.12,70.92,2.94-.42,5.7-1.67,7.95-3.61,13.9-11.97,67.72-52.38,58.63,48.35-10.43,115.49-146.79,73.02-146.79,73.02,0,0-78.82-28.11-15.09-168.65,.13-.29,.25-.58,.36-.87,3.44-9.12,56-152.09-25.51-166.52-80.31-14.21-103.09,93.58-105.02,103.58-.1,.49-.21,.97-.35,1.45-2.38,8.01-23.03,82.36,13.82,133.75,.89,1.24,1.97,2.31,3.19,3.23,13.61,10.26,98.19,76.67,35.98,96.11-.35,.11-.72,.21-1.08,.3-11.59,2.77-200.4,46.24-118.58-86.01,.21-.34,.41-.69,.59-1.05,4.71-9.19,62.07-126.47-28.37-224.89C108.85,15.74,96.82,180.24,95.88,196.12c-.05,.8-.03,1.6,.04,2.4,1.06,11.43,10.35,102.22,40.75,135.68,.69,.76,1.33,1.57,1.87,2.45,6.61,10.74,47.71,81.04-1.31,91.84-44.57,9.82-102.72,2.52-120.26-.08-3.37-.5-6.51-2-9.03-4.3h0Z"/></g></svg>