<svg width="68" height="49" viewBox="0 0 68 49" fill="none" xmlns="http://www.w3.org/2000/svg">
<g filter="url(#filter0_d_485_3758)">
<path d="M64 0H4V41H64V0Z" fill="#FFCC00"/>
<path d="M4 28.3438H12.1141L11.6708 30.2111H4V28.3438Z" fill="#D40511"/>
<path d="M4 24.8789H12.9385L12.4943 26.7444H4V24.8789Z" fill="#D40511"/>
<path d="M4 31.8125H11.2903L10.8489 33.6666H4V31.8125Z" fill="#D40511"/>
<path d="M64.0002 30.2121H55.918L56.3609 28.3457H64.0002V30.2121Z" fill="#D40511"/>
<path d="M63.9999 33.6666L55.0957 33.6694L55.5368 31.8125H63.9999V33.6666Z" fill="#D40511"/>
<path d="M57.1835 24.8789H63.9993V26.7453L56.7402 26.7472L57.1835 24.8789Z" fill="#D40511"/>
<path d="M11.8594 33.6654L15.7098 17.4668H20.4878C21.0159 17.4668 21.009 18.0877 20.751 19.1707C20.4889 20.2702 20.0429 22.161 19.7759 23.2773C19.6404 23.8443 19.3954 24.8774 20.2072 24.8774H26.6082C26.0759 27.1355 24.349 33.6654 21.2486 33.6654H11.8594Z" fill="#D40511"/>
<path d="M33.9101 24.877L31.8224 33.6662H26.3145C26.3145 33.6662 28.4014 24.8783 28.4032 24.8783L33.9101 24.877V24.877Z" fill="#D40511"/>
<path d="M41.876 24.877L39.7871 33.6649H34.2812C34.2812 33.6649 36.3683 24.877 36.3702 24.877H41.876Z" fill="#D40511"/>
<path d="M43.6659 24.8773C43.6661 24.8773 43.2636 26.5812 43.0681 27.3988C42.3765 30.2931 42.9877 33.6649 45.2449 33.6649H54.0874L56.1759 24.877L43.6659 24.8773Z" fill="#D40511"/>
<path d="M14.5517 7.39453L12.6348 15.4593H23.0824C23.6104 15.4593 23.6035 16.0802 23.3454 17.1631C23.0833 18.2614 22.6446 20.1739 22.3776 21.2901C22.2421 21.856 21.9971 22.889 22.8089 22.889H27.0813C27.0813 22.889 27.7701 19.987 28.3472 17.5612C29.1325 14.2611 28.4153 7.39453 25.6078 7.39453H14.5517Z" fill="#D40511"/>
<path d="M42.3485 22.889H28.877L32.5608 7.39453H38.0667L35.9557 16.2783H38.4133L40.5258 7.39453H46.0311L42.3485 22.889Z" fill="#D40511"/>
<path d="M53.6562 7.39453L49.9732 22.889H44.1387C44.1387 22.889 47.823 7.39453 47.8248 7.39453H53.6562Z" fill="#D40511"/>
</g>
<defs>
<filter id="filter0_d_485_3758" x="0" y="0" width="68" height="49" filterUnits="userSpaceOnUse" color-interpolation-filters="sRGB">
<feFlood flood-opacity="0" result="BackgroundImageFix"/>
<feColorMatrix in="SourceAlpha" type="matrix" values="0 0 0 0 0 0 0 0 0 0 0 0 0 0 0 0 0 0 127 0" result="hardAlpha"/>
<feOffset dy="4"/>
<feGaussianBlur stdDeviation="2"/>
<feComposite in2="hardAlpha" operator="out"/>
<feColorMatrix type="matrix" values="0 0 0 0 0 0 0 0 0 0 0 0 0 0 0 0 0 0 0.25 0"/>
<feBlend mode="normal" in2="BackgroundImageFix" result="effect1_dropShadow_485_3758"/>
<feBlend mode="normal" in="SourceGraphic" in2="effect1_dropShadow_485_3758" result="shape"/>
</filter>
</defs>
</svg>
